<svg xmlns="http://www.w3.org/2000/svg" width="88.933" height="71.144" viewBox="0 0 88.933 71.144">
  <defs>
    <style>
      .cls-1 {
        fill: none;
        stroke-width: 5px;
      }

      .cls-1, .cls-2, .cls-3 {
        stroke: #973739;
      }

      .cls-1, .cls-2 {
        stroke-linecap: round;
        stroke-linejoin: round;
      }

      .cls-2, .cls-3 {
        fill: #973739;
      }

      .cls-2 {
        stroke-width: 1.1px;
      }
    </style>
  </defs>
  <g id="Group_807" data-name="Group 807" transform="translate(1.5 -24.35)">
    <g id="Group_456" data-name="Group 456" transform="translate(1 44.404)">
      <g id="Icon_feather-plus" data-name="Icon feather-plus" transform="translate(0 17.38)">
        <path id="Path_34" data-name="Path 34" class="cls-1" d="M7.5,18H42.259" transform="translate(-7.5 -18)"/>
      </g>
      <g id="Icon_feather-plus-2" data-name="Icon feather-plus" transform="translate(17.38) rotate(90)">
        <path id="Path_34-2" data-name="Path 34" class="cls-1" d="M0,0H34.759"/>
      </g>
    </g>
    <g id="Group_644" data-name="Group 644" transform="translate(49.519 24.9)">
      <path id="Path_270" data-name="Path 270" class="cls-2" d="M31.533,130.346l-.076-4.194a.021.021,0,0,0-.015-.021L6.671,121.977c-.021,0-.019-.045,0-.044l-.018-1.17,27.9,2.208" transform="translate(-6.657 -120.763)"/>
      <path id="Path_649" data-name="Path 649" class="cls-3" d="M595.375,3476.031l26.492,1.69v7.241h-6.336v-4.1l-20.156-3.138Z" transform="translate(-591.03 -3475.778)"/>
    </g>
    <g id="Group_645" data-name="Group 645" transform="translate(47.346 34.335)">
      <path id="Path_257" data-name="Path 257" class="cls-3" d="M90.406,147.565" transform="translate(-73.369 -114.336)"/>
      <g id="Group_190" data-name="Group 190" transform="translate(0 0)">
        <path id="Path_258" data-name="Path 258" class="cls-3" d="M56.085,124v36.441l2.946,2.686h34.2l2.443-2.341V124Zm25.542,13.01a.359.359,0,0,1,.359-.359h.92a1.91,1.91,0,0,0,.917-.233,4.6,4.6,0,0,0,.422-.258,2.957,2.957,0,0,1,1.686-.551H90.5a1.859,1.859,0,0,1,2.012,1.8,32,32,0,0,1,.015,3.765,1.024,1.024,0,0,1-.143.471l-.608,1.021a1.031,1.031,0,0,0-.143.588l.064,1.052a1.025,1.025,0,0,1-1.03,1.092c-.949-.014-2.185-.293-2.251-1.633,0,0,.287-1.76-1.76-1.724a13.48,13.48,0,0,1-2.263-.036s-1.15-.131-1.185-.856v-.022a2.188,2.188,0,0,0-1.08-1.732l-.17-.1a.677.677,0,0,1-.329-.581Zm-6.8.076a.5.5,0,0,1,.5-.435h4.9a.5.5,0,0,1,.5.5v1.635a.487.487,0,0,0,.012.107c.056.245.339,1.115.85,1.275.575.18.853,1.319.92,1.624a.476.476,0,0,0,.052.135,2.08,2.08,0,0,0,1.039.971c.524.145.458,1.256.414,1.674a.491.491,0,0,1-.119.275,7.6,7.6,0,0,1-1.086,1.069c-.3.2-.406.985-.445,1.461a.5.5,0,0,1-.4.451,22.212,22.212,0,0,1-8.318-.027.5.5,0,0,1-.368-.314,1.2,1.2,0,0,1,.589-1.607c.973-.516,1.171-.985,1.211-1.155a.387.387,0,0,0,.01-.1,1.9,1.9,0,0,1,.791-1.624c.826-.431.683-1.861.683-1.861a2.2,2.2,0,0,0-1-1.91A2.332,2.332,0,0,1,74.825,137.089ZM68,138.771l.2-1.648a.534.534,0,0,1,.53-.469h4.705a.534.534,0,0,1,.534.534v1.168a1.364,1.364,0,0,0,.352.914l.894.989a1.323,1.323,0,0,1,.317,1.139l-.049.252a1.3,1.3,0,0,1-.323.641,5.271,5.271,0,0,0-1.242,2.082,1.254,1.254,0,0,1-.883.887,3.882,3.882,0,0,1-1.766.084,1.245,1.245,0,0,0-.559.007l-.95.254a1.255,1.255,0,0,1-1.491-.7l-.01-.025c-.323-.826-.755-1.688-.755-1.688a.768.768,0,0,0-.79-.755c-.4-.018-.55-.446-.6-.866a1.386,1.386,0,0,1,.519-1.245l.908-.73A1.253,1.253,0,0,0,68,138.771Zm-8.5-.68c-.136-2.107,2.172-2.446,2.421-2.477l.043,0h4.083a.791.791,0,0,1,.786.884l-.289,2.46a.793.793,0,0,1-.278.512c-.367.31-1.013.938-.909,1.444.144.7-.934,1.6-.934,1.6a3.222,3.222,0,0,0-1.207,2.12c.012.876-1.692,1.334-2.5,1.5a.354.354,0,0,1-.425-.345l-.028-2.385a1.421,1.421,0,0,0-.113-.542l-.512-1.211a1.374,1.374,0,0,1-.107-.638A21.355,21.355,0,0,0,59.5,138.091Zm7.441,18.293a1.7,1.7,0,0,1-1.837,1.845,13.7,13.7,0,0,0-3.233.015c-1.688.323-1.9-1.042-1.9-1.042l-.422-7.035a1.556,1.556,0,0,1,.434-1.192,1.526,1.526,0,0,0,.361-.6,1.665,1.665,0,0,1,1.1-1.093c2.549-.75,2.154-1.577,2.8-3.154a1.554,1.554,0,0,1,1.119-1.064,1.366,1.366,0,0,1,1.462.774c.3.622.763,1.581.9,1.978a1.347,1.347,0,0,0,.277.456,1.528,1.528,0,0,1,.38,1.491c-.138.426-.38.823-.8.856-.564.043-.6.925-.547,1.617a1.8,1.8,0,0,0,.674,1.269,2.19,2.19,0,0,1,.853,1.84c-.02.307-.118.563-.369.626a1.936,1.936,0,0,0-.836.543,1.669,1.669,0,0,0-.463,1.318Zm9.874,1.213H68.083v-2.371s1.653-.575,1.581-1.9l-.071-1.329a1.58,1.58,0,0,0-1.028-1.113c-.841-.252-.482-1.581-.482-1.581s1.688-1.042,1.473-2.156,1.617-1,1.617-1,1.361.034,1.237,1.255,1.529,1.617,1.529,1.617l3.485.323s.179,1.9-1.294,2.012-.568,2.766-.568,2.766,1.229,1.185,1.869,1.006S76.813,157.6,76.813,157.6Zm10.788-.253a1,1,0,0,1-1,.949h-.494a1,1,0,0,1-.625-.22l-.856-.689a1,1,0,0,0-.62-.22l-4.427-.028a.99.99,0,0,1-.985-.887,2.515,2.515,0,0,0-1.406-2.293,1.016,1.016,0,0,1-.615-.557,1.045,1.045,0,0,1,.237-1.371,2.925,2.925,0,0,0,1.712-2.242,1,1,0,0,1,.885-.817l3.377-.324a.981.981,0,0,1,.642.158,1.7,1.7,0,0,1,.855,1.68,1.375,1.375,0,0,0,.98,1.472.979.979,0,0,1,.551.664l.324,1.294a1,1,0,0,0,.366.554l.771.583a1,1,0,0,1,.4.845Zm1.705,1.011a.748.748,0,0,1-.621-.471,3.284,3.284,0,0,1-.161-2.192c.431-1.113-.826-1.545-.826-1.545a1.715,1.715,0,0,1-.862-1.185,11.024,11.024,0,0,0-.624-1.575.712.712,0,0,0-.392-.367c-.219-.08-.537-.321-.672-1.04a3.341,3.341,0,0,0-.9-1.765,2.089,2.089,0,0,1-.646-1.577,2.8,2.8,0,0,1,1.154-1.675.683.683,0,0,0,.161-.169,1.954,1.954,0,0,0,.292-1.046.737.737,0,0,1,.74-.712h.658a.736.736,0,0,1,.736.662c.1,1.014.668,2.822,3.508,2.713a.747.747,0,0,1,.777.626,5.623,5.623,0,0,0,.805,2.36.687.687,0,0,1,.142.435v6.326S92.763,158.733,89.305,158.355Z" transform="translate(-56.085 -102.47)"/>
        <path id="Path_259" data-name="Path 259" class="cls-3" d="M95.672,100.567v-17.6l-2.443-2.342H58.743l-2.658,2.066v17.876ZM78.879,88.954a2.4,2.4,0,0,1,2.393-2.393H88.7a2.4,2.4,0,0,1,2.393,2.393v3.692A2.4,2.4,0,0,1,88.7,95.039H81.271a2.4,2.4,0,0,1-2.393-2.393Zm-13.265-3.9A5.743,5.743,0,1,1,59.871,90.8,5.75,5.75,0,0,1,65.614,85.057Z" transform="translate(-56.085 -80.625)"/>
      </g>
      <circle id="Ellipse_82" data-name="Ellipse 82" class="cls-3" cx="1.581" cy="1.581" r="1.581" transform="translate(7.869 8.675)"/>
    </g>
  </g>
</svg>
