<svg xmlns="http://www.w3.org/2000/svg" width="41.5" height="25.5" viewBox="0 0 41.5 25.5">
  <defs>
    <style>
      .cls-1 {
        fill: none;
        stroke: #fff;
        stroke-linecap: round;
        stroke-linejoin: round;
        stroke-width: 3px;
      }

      .cls-2 {
        fill: #fff;
      }
    </style>
  </defs>
  <g id="Icon_feather-plus" data-name="Icon feather-plus" transform="translate(1.5 3.572)">
    <path id="Path_33" data-name="Path 33" class="cls-1" d="M18,7.5v16" transform="translate(-10 -7.5)"/>
    <path id="Path_34" data-name="Path 34" class="cls-1" d="M7.5,18h16" transform="translate(-7.5 -10)"/>
    <path id="Path_52" data-name="Path 52" class="cls-2" d="M115.619,32.484a13.284,13.284,0,0,0-5.035-3.039,7.3,7.3,0,0,0,3.326-6.074,7.666,7.666,0,0,0-15.32,0,7.3,7.3,0,0,0,3.326,6.074,13.283,13.283,0,0,0-5.035,3.039A12.43,12.43,0,0,0,93,41.5h2.07a11.188,11.188,0,0,1,22.359,0h2.07A12.43,12.43,0,0,0,115.619,32.484ZM100.66,23.371a5.594,5.594,0,1,1,5.59,5.379A5.494,5.494,0,0,1,100.66,23.371Z" transform="translate(-79.5 -19.572)"/>
  </g>
</svg>
